<svg xmlns="http://www.w3.org/2000/svg" viewBox="0 0 1578.89 1225.72"><defs><style>.cls-1{fill:#fff;}.cls-2{fill:#00a99d;}</style></defs><g id="Ebene_2" data-name="Ebene 2"><g id="Ebene_1-2" data-name="Ebene 1"><path class="cls-1" d="M883.15,612.86s-140.6-187.41-314-187.41-314,187.41-314,187.41,140.6,187.41,314,187.41S883.15,612.86,883.15,612.86Z"/><circle class="cls-2" cx="569.12" cy="612.86" r="117.61"/><path class="cls-2" d="M275.36,478.37l276.4-168.92a33.26,33.26,0,0,1,34.72,0l276.4,168.92A13.32,13.32,0,0,0,883.15,467V314A66.6,66.6,0,0,0,863.64,267L727.42,130.73,616.21,19.52a66.59,66.59,0,0,0-94.18,0L274.6,267A66.6,66.6,0,0,0,255.09,314V467A13.32,13.32,0,0,0,275.36,478.37Z"/><path class="cls-2" d="M988.77,789.91l130-130a66.59,66.59,0,0,0,0-94.18l-130-130A13.32,13.32,0,0,0,966,445.22V549.46A33.31,33.31,0,0,0,982,577.88l38.64,23.61a13.32,13.32,0,0,1,0,22.73L982,647.84A33.3,33.3,0,0,0,966,676.25V780.49A13.32,13.32,0,0,0,988.77,789.91Z"/><path class="cls-2" d="M156.27,647.84l-38.64-23.62a13.32,13.32,0,0,1,0-22.73l38.64-23.61a33.3,33.3,0,0,0,15.93-28.42V445.22a13.32,13.32,0,0,0-22.73-9.42l-130,130a66.59,66.59,0,0,0,0,94.18l130,130a13.31,13.31,0,0,0,22.73-9.42V676.25A33.29,33.29,0,0,0,156.27,647.84Z"/><path class="cls-2" d="M862.88,747.35,586.48,916.28a33.3,33.3,0,0,1-34.72,0L275.36,747.35a13.32,13.32,0,0,0-20.27,11.37v153a66.6,66.6,0,0,0,19.51,47.09L522,1206.21a66.61,66.61,0,0,0,94.18,0L727.42,1095,863.64,958.78a66.6,66.6,0,0,0,19.51-47.09v-153A13.32,13.32,0,0,0,862.88,747.35Z"/><polygon class="cls-1" points="966.04 0.01 732.68 0 1345.54 612.86 732.67 1225.72 966.03 1225.71 1578.89 612.86 966.04 0.01"/></g></g></svg>